<?xml version="1.0" encoding="iso-8859-1"?>
<!-- Generator: Adobe Illustrator 17.1.0, SVG Export Plug-In . SVG Version: 6.00 Build 0)  -->
<!DOCTYPE svg PUBLIC "-//W3C//DTD SVG 1.1//EN" "http://www.w3.org/Graphics/SVG/1.1/DTD/svg11.dtd">
<svg version="1.1" id="Capa_1" xmlns="http://www.w3.org/2000/svg" xmlns:xlink="http://www.w3.org/1999/xlink" x="0px" y="0px"
	 viewBox="0 0 420.217 420.217" style="enable-background:new 0 0 420.217 420.217;" xml:space="preserve">
<path d="M289.835,31.965c-2.242-1.378-4.589-2.651-7.013-3.851c-1.296-1.076-2.87-1.824-4.596-2.136
	c-10.319-4.512-21.96-7.817-34.25-10.871c-1.048-0.467-2.192-0.754-3.393-0.834c-3.159-0.769-6.352-1.529-9.575-2.294
	c-4.02-0.954-8.081-1.919-12.155-2.924c-4.16-1.026-8.103-1.95-11.885-2.793c-0.91-0.349-1.882-0.567-2.898-0.636
	c-14.255-3.077-25.912-4.819-36.067-5.398c-0.374-0.042-0.752-0.069-1.137-0.069c-0.019,0-0.037,0.003-0.056,0.003
	C164.658,0.056,162.566,0,160.535,0c-38.464,0-57.967,19.851-57.967,59c0,69.048,9.962,93.191,20.509,118.754
	c11.616,28.154,23.628,57.267,23.628,157.468c0,24.327,7.291,45.313,21.084,60.689c13.433,14.973,32.499,23.588,53.689,24.257
	c1.029,0.032,2.057,0.049,3.075,0.049c0.001,0,0.002,0,0.003,0c20.834,0,39.193-6.72,53.091-19.432
	c14.514-13.275,23.483-32.655,25.938-56.043c4.972-47.373,11.264-172.66,14.021-259.953
	C318.351,61.187,309.267,43.907,289.835,31.965z M297.616,84.158c-2.746,86.94-8.995,211.558-13.921,258.496
	c-3.783,36.045-25.892,57.564-59.141,57.563c-0.81,0-1.626-0.013-2.444-0.039c-33.656-1.063-55.403-26.56-55.403-64.956
	c0-104.165-13.356-136.536-25.141-165.096c-9.77-23.678-18.997-46.043-18.997-111.126c0-26.769,9.696-37.945,34.298-38.921v14.158
	h-7.616c-5.523,0-10,4.478-10,10s4.477,10,10,10h7.616v20c0,5.523,4.477,10,10,10c5.523,0,10-4.477,10-10V21.115
	c5.016,0.627,10.487,1.528,16.524,2.718v54.404c0,5.523,4.477,10,10,10c5.523,0,10.001-4.477,10.001-10V28.31
	c0.227,0.056,0.443,0.107,0.671,0.163c4.132,1.02,8.25,1.997,12.326,2.965c1.192,0.283,2.361,0.563,3.526,0.842v49.958
	c0,5.523,4.478,10,10,10c5.522,0,10-4.477,10-10V37.391c6.044,1.697,11.562,3.451,16.524,5.372v43.475c0,5.523,4.478,10,10,10
	c5.522,0,10-4.477,10-10V54.255C294.158,61.331,298.041,70.683,297.616,84.158z"/>
<g>
</g>
<g>
</g>
<g>
</g>
<g>
</g>
<g>
</g>
<g>
</g>
<g>
</g>
<g>
</g>
<g>
</g>
<g>
</g>
<g>
</g>
<g>
</g>
<g>
</g>
<g>
</g>
<g>
</g>
</svg>
