<?xml version="1.0" encoding="utf-8"?>
<!-- Generator: Adobe Illustrator 16.0.3, SVG Export Plug-In . SVG Version: 6.00 Build 0)  -->
<!DOCTYPE svg PUBLIC "-//W3C//DTD SVG 1.1//EN" "http://www.w3.org/Graphics/SVG/1.1/DTD/svg11.dtd">
<svg version="1.1" id="Layer_1" xmlns="http://www.w3.org/2000/svg" xmlns:xlink="http://www.w3.org/1999/xlink" x="0px" y="0px"
	 width="411.83px" height="288.843px" viewBox="0 0 411.83 288.843" enable-background="new 0 0 411.83 288.843"
	 xml:space="preserve">
<g>
	<g>
		<path d="M111.737,230.556c1.506,0,2.919,0.282,4.238,0.848c1.318,0.565,2.462,1.332,3.431,2.301s1.736,2.113,2.301,3.431
			c0.565,1.319,0.848,2.732,0.848,4.238v9.445v19.94h-2.664v-19.94v-9.445c0-1.13-0.216-2.192-0.646-3.189
			c-0.431-0.995-1.009-1.857-1.735-2.583s-1.588-1.304-2.583-1.736c-0.997-0.43-2.059-0.646-3.189-0.646s-2.193,0.215-3.189,0.646
			c-0.997,0.432-1.856,1.009-2.583,1.736s-1.306,1.588-1.736,2.583c-0.432,0.997-0.646,2.059-0.646,3.189v9.445v19.94h-2.664v-19.94
			v-9.445v-28.498h2.664v21.394c1.022-1.183,2.233-2.099,3.633-2.745C108.615,230.878,110.123,230.556,111.737,230.556z"/>
		<path d="M155.414,230.556c1.506,0,2.878,0.282,4.117,0.848c1.237,0.565,2.301,1.332,3.189,2.301s1.587,2.113,2.099,3.431
			c0.511,1.319,0.767,2.732,0.767,4.238v9.445v9.526v10.414h-2.664v-3.31c-1.023,1.13-2.234,2.032-3.633,2.704
			c-1.4,0.672-2.906,1.009-4.521,1.009c-1.507,0-2.92-0.283-4.238-0.848c-1.319-0.565-2.462-1.332-3.431-2.301
			s-1.736-2.112-2.301-3.431c-0.565-1.318-0.848-2.731-0.848-4.238v-2.261c0-3.336,2.045-5.758,6.136-7.266
			c0.484-0.214,1.304-0.537,2.462-0.969c1.157-0.43,2.395-0.9,3.714-1.413c1.318-0.511,2.596-0.996,3.834-1.453
			c1.238-0.457,2.18-0.82,2.826-1.09v-4.521c0-2.261-0.686-4.184-2.059-5.772c-1.373-1.587-3.189-2.381-5.449-2.381
			c-1.13,0-2.18,0.215-3.148,0.646c-0.969,0.432-1.831,1.009-2.583,1.736c-0.754,0.727-1.346,1.588-1.776,2.583
			c-0.432,0.997-0.646,2.059-0.646,3.189h-2.664c0-1.506,0.282-2.919,0.848-4.238c0.565-1.318,1.332-2.462,2.301-3.431
			s2.111-1.736,3.431-2.301C152.493,230.838,153.906,230.556,155.414,230.556z M162.921,250.819v-2.018
			c-0.807,0.323-1.804,0.7-2.987,1.13c-1.185,0.432-2.369,0.875-3.552,1.332c-1.185,0.458-2.261,0.875-3.229,1.251
			c-0.969,0.377-1.668,0.646-2.099,0.808c-1.023,0.377-2.019,0.942-2.987,1.695c-0.969,0.754-1.453,1.776-1.453,3.067v2.261
			c0,1.13,0.214,2.193,0.646,3.189c0.43,0.997,1.009,1.856,1.736,2.583s1.586,1.306,2.583,1.736
			c0.996,0.432,2.059,0.646,3.189,0.646s2.192-0.214,3.189-0.646c0.995-0.43,1.857-1.009,2.583-1.736s1.304-1.586,1.735-2.583
			c0.43-0.996,0.646-2.059,0.646-3.189V250.819z"/>
		<path d="M198.201,230.556c1.506,0,2.919,0.282,4.238,0.848c1.318,0.565,2.462,1.332,3.431,2.301s1.736,2.113,2.301,3.431
			c0.565,1.319,0.848,2.732,0.848,4.238v9.445v19.94h-2.664v-19.94v-9.445c0-1.13-0.216-2.192-0.646-3.189
			c-0.431-0.995-1.009-1.857-1.735-2.583s-1.588-1.304-2.583-1.736c-0.997-0.43-2.059-0.646-3.189-0.646s-2.193,0.215-3.189,0.646
			c-0.997,0.432-1.856,1.009-2.583,1.736s-1.306,1.588-1.736,2.583c-0.432,0.997-0.646,2.059-0.646,3.189v9.445v19.94h-2.664v-19.94
			v-9.445v-10.415h2.664v3.31c1.022-1.183,2.233-2.099,3.633-2.745C195.079,230.878,196.586,230.556,198.201,230.556z"/>
		<path d="M252.451,212.875v28.498v18.972v10.414h-2.664v-3.31c-1.023,1.13-2.234,2.032-3.633,2.704
			c-1.4,0.672-2.906,1.009-4.521,1.009c-1.507,0-2.92-0.283-4.238-0.848c-1.319-0.565-2.462-1.332-3.431-2.301
			s-1.736-2.112-2.301-3.431c-0.565-1.318-0.848-2.731-0.848-4.238v-18.972c0-1.506,0.283-2.919,0.848-4.238
			c0.565-1.318,1.332-2.462,2.301-3.431s2.112-1.736,3.431-2.301c1.318-0.565,2.731-0.848,4.238-0.848
			c1.615,0,3.121,0.323,4.521,0.969c1.399,0.646,2.61,1.562,3.633,2.745v-21.394H252.451z M241.633,268.499
			c1.13,0,2.192-0.214,3.189-0.646c0.995-0.43,1.857-1.009,2.583-1.736s1.304-1.586,1.735-2.583c0.43-0.996,0.646-2.059,0.646-3.189
			v-18.972c0-1.13-0.216-2.192-0.646-3.189c-0.431-0.995-1.009-1.857-1.735-2.583s-1.588-1.304-2.583-1.736
			c-0.997-0.43-2.059-0.646-3.189-0.646s-2.193,0.215-3.189,0.646c-0.997,0.432-1.856,1.009-2.583,1.736s-1.306,1.588-1.736,2.583
			c-0.432,0.997-0.646,2.059-0.646,3.189v18.972c0,1.13,0.214,2.193,0.646,3.189c0.43,0.997,1.009,1.856,1.736,2.583
			s1.586,1.306,2.583,1.736C239.44,268.285,240.503,268.499,241.633,268.499z"/>
		<path d="M314.372,249.608c1.184,0.593,2.382,1.225,3.593,1.897c1.211,0.674,2.301,1.441,3.27,2.301
			c0.969,0.861,1.762,1.816,2.381,2.866c0.618,1.049,0.929,2.274,0.929,3.673c0,1.507-0.282,2.92-0.848,4.238
			c-0.565,1.319-1.332,2.462-2.301,3.431s-2.113,1.736-3.431,2.301c-1.319,0.565-2.732,0.848-4.238,0.848
			c-1.508,0-2.921-0.283-4.239-0.848c-1.319-0.565-2.462-1.332-3.431-2.301s-1.735-2.112-2.301-3.431
			c-0.565-1.318-0.848-2.731-0.848-4.238h2.664c0,1.13,0.215,2.193,0.646,3.189c0.431,0.997,1.01,1.856,1.736,2.583
			s1.587,1.306,2.583,1.736c0.995,0.432,2.059,0.646,3.189,0.646c1.13,0,2.192-0.214,3.188-0.646
			c0.995-0.43,1.856-1.009,2.583-1.736s1.305-1.586,1.736-2.583c0.43-0.996,0.646-2.059,0.646-3.189
			c0-0.969-0.242-1.843-0.727-2.624c-0.484-0.779-1.13-1.493-1.938-2.139s-1.735-1.251-2.785-1.816s-2.14-1.143-3.27-1.736
			c-1.239-0.591-2.462-1.224-3.674-1.897c-1.211-0.672-2.301-1.425-3.27-2.261c-0.969-0.833-1.763-1.776-2.381-2.825
			c-0.62-1.05-0.929-2.273-0.929-3.673c0-1.506,0.282-2.919,0.848-4.238c0.565-1.318,1.332-2.462,2.301-3.431
			s2.111-1.736,3.431-2.301c1.318-0.565,2.731-0.848,4.239-0.848c1.506,0,2.919,0.282,4.238,0.848
			c1.317,0.565,2.462,1.332,3.431,2.301s1.735,2.113,2.301,3.431c0.565,1.319,0.848,2.732,0.848,4.238h-2.664
			c0-1.13-0.216-2.192-0.646-3.189c-0.432-0.995-1.01-1.857-1.736-2.583s-1.588-1.304-2.583-1.736
			c-0.996-0.43-2.059-0.646-3.188-0.646c-1.131,0-2.194,0.215-3.189,0.646c-0.996,0.432-1.856,1.009-2.583,1.736
			s-1.306,1.588-1.736,2.583c-0.431,0.997-0.646,2.059-0.646,3.189c0,0.969,0.242,1.844,0.727,2.624
			c0.484,0.781,1.143,1.494,1.978,2.14c0.834,0.646,1.776,1.251,2.826,1.816C312.152,248.518,313.242,249.071,314.372,249.608z"/>
		<path d="M357.159,230.556c1.506,0,2.919,0.282,4.238,0.848c1.318,0.565,2.463,1.332,3.432,2.301s1.734,2.113,2.301,3.431
			c0.564,1.319,0.848,2.732,0.848,4.238v18.972c0,1.507-0.283,2.92-0.848,4.238c-0.566,1.319-1.332,2.462-2.301,3.431
			s-2.113,1.736-3.432,2.301c-1.319,0.565-2.732,0.848-4.238,0.848c-1.615,0-3.122-0.337-4.521-1.009
			c-1.4-0.672-2.611-1.574-3.633-2.704v21.394h-2.664v-28.498v-18.972v-10.415h2.664v3.31c1.021-1.183,2.232-2.099,3.633-2.745
			C354.037,230.878,355.544,230.556,357.159,230.556z M365.313,241.374c0-1.13-0.217-2.192-0.646-3.189
			c-0.432-0.995-1.01-1.857-1.736-2.583s-1.588-1.304-2.583-1.736c-0.996-0.43-2.059-0.646-3.188-0.646
			c-1.131,0-2.194,0.215-3.189,0.646c-0.996,0.432-1.856,1.009-2.583,1.736s-1.306,1.588-1.736,2.583
			c-0.431,0.997-0.646,2.059-0.646,3.189v18.972c0,1.13,0.215,2.193,0.646,3.189c0.431,0.997,1.01,1.856,1.736,2.583
			s1.587,1.306,2.583,1.736c0.995,0.432,2.059,0.646,3.189,0.646c1.13,0,2.192-0.214,3.188-0.646
			c0.995-0.43,1.856-1.009,2.583-1.736s1.305-1.586,1.736-2.583c0.43-0.996,0.646-2.059,0.646-3.189V241.374z"/>
		<path d="M400.834,230.556c1.506,0,2.879,0.282,4.117,0.848c1.238,0.565,2.301,1.332,3.189,2.301s1.586,2.113,2.1,3.431
			c0.51,1.319,0.766,2.732,0.766,4.238v9.445v9.526v10.414h-2.664v-3.31c-1.021,1.13-2.234,2.032-3.633,2.704
			c-1.4,0.672-2.906,1.009-4.52,1.009c-1.508,0-2.922-0.283-4.24-0.848s-2.461-1.332-3.43-2.301s-1.736-2.112-2.301-3.431
			c-0.566-1.318-0.848-2.731-0.848-4.238v-2.261c0-3.336,2.045-5.758,6.135-7.266c0.484-0.214,1.305-0.537,2.463-0.969
			c1.156-0.43,2.395-0.9,3.713-1.413c1.318-0.511,2.596-0.996,3.836-1.453c1.236-0.457,2.18-0.82,2.824-1.09v-4.521
			c0-2.261-0.686-4.184-2.059-5.772c-1.371-1.587-3.188-2.381-5.449-2.381c-1.129,0-2.18,0.215-3.148,0.646
			c-0.969,0.432-1.83,1.009-2.584,1.736s-1.346,1.588-1.775,2.583c-0.432,0.997-0.646,2.059-0.646,3.189h-2.664
			c0-1.506,0.283-2.919,0.848-4.238c0.566-1.318,1.332-2.462,2.301-3.431s2.113-1.736,3.432-2.301
			C397.915,230.838,399.327,230.556,400.834,230.556z M408.342,250.819v-2.018c-0.807,0.323-1.803,0.7-2.986,1.13
			c-1.186,0.432-2.369,0.875-3.553,1.332c-1.184,0.458-2.26,0.875-3.229,1.251c-0.969,0.377-1.67,0.646-2.1,0.808
			c-1.023,0.377-2.018,0.942-2.986,1.695c-0.969,0.754-1.453,1.776-1.453,3.067v2.261c0,1.13,0.215,2.193,0.645,3.189
			c0.432,0.997,1.01,1.856,1.736,2.583s1.588,1.306,2.584,1.736c0.994,0.432,2.059,0.646,3.189,0.646
			c1.129,0,2.191-0.214,3.188-0.646c0.996-0.43,1.857-1.009,2.584-1.736s1.305-1.586,1.736-2.583
			c0.43-0.996,0.645-2.059,0.645-3.189V250.819z"/>
	</g>
	<g>
		<path fill="#C32127" stroke="#C32127" stroke-width="3" stroke-miterlimit="10" d="M103.834,162.957V1.5h7.431v161.457H103.834z"
			/>
		<path fill="#C32127" stroke="#C32127" stroke-width="3" stroke-miterlimit="10" d="M181.971,164.083
			c-4.205,0-8.146-0.788-11.822-2.364c-3.681-1.577-6.868-3.716-9.57-6.418s-4.841-5.89-6.418-9.57
			c-1.576-3.677-2.364-7.618-2.364-11.822V80.99c0-4.201,0.788-8.142,2.364-11.822c1.577-3.677,3.716-6.868,6.418-9.57
			c2.702-2.702,5.89-4.841,9.57-6.417c3.677-1.576,7.618-2.364,11.822-2.364c4.201,0,8.142,0.788,11.822,2.364
			c3.677,1.576,6.868,3.715,9.57,6.417c2.702,2.703,4.842,5.894,6.418,9.57c1.576,3.681,2.364,7.621,2.364,11.822v52.918
			c0,4.205-0.788,8.146-2.364,11.822c-1.576,3.681-3.716,6.868-6.418,9.57s-5.894,4.841-9.57,6.418
			C190.113,163.294,186.172,164.083,181.971,164.083z M181.971,58.246c-3.153,0-6.119,0.602-8.895,1.802
			c-2.78,1.203-5.179,2.814-7.206,4.841c-2.027,2.027-3.642,4.43-4.842,7.206c-1.203,2.779-1.801,5.742-1.801,8.895v52.918
			c0,3.153,0.598,6.119,1.801,8.895c1.2,2.78,2.815,5.179,4.842,7.206c2.026,2.026,4.426,3.642,7.206,4.841
			c2.776,1.203,5.742,1.801,8.895,1.801c3.152,0,6.115-0.598,8.895-1.801c2.776-1.2,5.179-2.815,7.206-4.841
			c2.026-2.027,3.638-4.426,4.841-7.206c1.2-2.776,1.801-5.742,1.801-8.895V80.99c0-3.152-0.602-6.115-1.801-8.895
			c-1.203-2.776-2.815-5.179-4.841-7.206c-2.027-2.027-4.43-3.638-7.206-4.841C188.086,58.848,185.124,58.246,181.971,58.246z"/>
		<path fill="#C32127" stroke="#C32127" stroke-width="3" stroke-miterlimit="10" d="M282.402,103.958
			c3.301,1.654,6.644,3.417,10.021,5.292c3.377,1.879,6.417,4.018,9.119,6.417c2.703,2.403,4.916,5.067,6.644,7.994
			c1.724,2.927,2.59,6.344,2.59,10.246c0,4.205-0.788,8.146-2.365,11.822c-1.576,3.681-3.715,6.868-6.417,9.57
			s-5.894,4.841-9.57,6.418c-3.681,1.576-7.621,2.364-11.822,2.364c-4.205,0-8.146-0.788-11.822-2.364
			c-3.681-1.577-6.868-3.716-9.57-6.418s-4.842-5.89-6.418-9.57c-1.576-3.677-2.364-7.618-2.364-11.822h7.431
			c0,3.153,0.599,6.119,1.802,8.895c1.2,2.78,2.814,5.179,4.842,7.206c2.026,2.026,4.426,3.642,7.206,4.841
			c2.775,1.203,5.742,1.801,8.895,1.801s6.115-0.598,8.895-1.801c2.776-1.2,5.18-2.815,7.206-4.841
			c2.026-2.027,3.638-4.426,4.841-7.206c1.2-2.776,1.802-5.742,1.802-8.895c0-2.702-0.676-5.14-2.026-7.318
			c-1.352-2.174-3.152-4.166-5.404-5.967c-2.252-1.801-4.842-3.49-7.77-5.066c-2.927-1.577-5.967-3.188-9.119-4.842
			c-3.455-1.65-6.868-3.413-10.246-5.292c-3.378-1.875-6.418-3.976-9.12-6.305c-2.702-2.326-4.919-4.954-6.643-7.881
			c-1.728-2.928-2.59-6.34-2.59-10.246c0-4.201,0.788-8.142,2.364-11.822c1.576-3.677,3.716-6.868,6.418-9.57
			c2.702-2.702,5.89-4.841,9.57-6.417c3.677-1.576,7.617-2.364,11.822-2.364c4.201,0,8.142,0.788,11.822,2.364
			c3.677,1.576,6.868,3.715,9.57,6.417c2.702,2.703,4.841,5.894,6.417,9.57c1.577,3.681,2.365,7.621,2.365,11.822h-7.432
			c0-3.152-0.602-6.115-1.802-8.895c-1.203-2.776-2.814-5.179-4.841-7.206s-4.43-3.638-7.206-4.841
			c-2.779-1.2-5.742-1.802-8.895-1.802s-6.119,0.602-8.895,1.802c-2.78,1.203-5.18,2.814-7.206,4.841
			c-2.027,2.027-3.642,4.43-4.842,7.206c-1.203,2.779-1.802,5.742-1.802,8.895c0,2.702,0.676,5.144,2.027,7.318
			c1.351,2.178,3.188,4.166,5.517,5.967c2.326,1.802,4.954,3.491,7.882,5.067C276.209,100.918,279.25,102.459,282.402,103.958z"/>
		<path fill="#C32127" stroke="#C32127" stroke-width="3" stroke-miterlimit="10" d="M379.909,103.958
			c3.301,1.654,6.644,3.417,10.021,5.292c3.377,1.879,6.417,4.018,9.119,6.417c2.703,2.403,4.916,5.067,6.644,7.994
			c1.724,2.927,2.59,6.344,2.59,10.246c0,4.205-0.788,8.146-2.365,11.822c-1.576,3.681-3.715,6.868-6.417,9.57
			s-5.894,4.841-9.57,6.418c-3.681,1.576-7.621,2.364-11.822,2.364c-4.205,0-8.146-0.788-11.822-2.364
			c-3.681-1.577-6.868-3.716-9.57-6.418s-4.842-5.89-6.418-9.57c-1.576-3.677-2.364-7.618-2.364-11.822h7.431
			c0,3.153,0.599,6.119,1.802,8.895c1.2,2.78,2.814,5.179,4.842,7.206c2.026,2.026,4.426,3.642,7.206,4.841
			c2.775,1.203,5.742,1.801,8.895,1.801s6.115-0.598,8.895-1.801c2.776-1.2,5.18-2.815,7.206-4.841
			c2.026-2.027,3.638-4.426,4.841-7.206c1.2-2.776,1.802-5.742,1.802-8.895c0-2.702-0.676-5.14-2.026-7.318
			c-1.352-2.174-3.152-4.166-5.404-5.967c-2.252-1.801-4.842-3.49-7.77-5.066c-2.927-1.577-5.967-3.188-9.119-4.842
			c-3.455-1.65-6.868-3.413-10.246-5.292c-3.378-1.875-6.418-3.976-9.12-6.305c-2.702-2.326-4.919-4.954-6.643-7.881
			c-1.728-2.928-2.59-6.34-2.59-10.246c0-4.201,0.788-8.142,2.364-11.822c1.576-3.677,3.716-6.868,6.418-9.57
			c2.702-2.702,5.89-4.841,9.57-6.417c3.677-1.576,7.617-2.364,11.822-2.364c4.201,0,8.142,0.788,11.822,2.364
			c3.677,1.576,6.868,3.715,9.57,6.417c2.702,2.703,4.841,5.894,6.417,9.57c1.577,3.681,2.365,7.621,2.365,11.822h-7.432
			c0-3.152-0.602-6.115-1.802-8.895c-1.203-2.776-2.814-5.179-4.841-7.206s-4.43-3.638-7.206-4.841
			c-2.779-1.2-5.742-1.802-8.895-1.802s-6.119,0.602-8.895,1.802c-2.78,1.203-5.18,2.814-7.206,4.841
			c-2.027,2.027-3.642,4.43-4.842,7.206c-1.203,2.779-1.802,5.742-1.802,8.895c0,2.702,0.676,5.144,2.027,7.318
			c1.351,2.178,3.188,4.166,5.517,5.967c2.326,1.802,4.954,3.491,7.882,5.067C373.716,100.918,376.756,102.459,379.909,103.958z"/>
	</g>
	<g>
		<g>
			<path fill="#C32127" d="M54.417,133.624h7.431v52.919v51.116c0,16.889-13.286,30.174-30.174,30.174
				c-16.89,0-30.174-13.285-30.174-30.174h7.107c0,12.385,10.456,22.743,23.067,22.743c12.609,0,22.743-10.358,22.743-22.743
				 M54.417,186.543 M54.417,186.543v-52.919"/>
			<path fill="#C32127" d="M31.674,269.333C13.913,269.333,0,255.42,0,237.659v-1.5h10.107v1.5c0,11.515,9.876,21.243,21.567,21.243
				c11.713,0,21.243-9.53,21.243-21.243h3c0,13.368-10.875,24.243-24.243,24.243c-12.807,0-23.703-10.268-24.519-22.743H3.037
				c0.755,15.355,13.062,27.174,28.638,27.174c16.079,0,28.674-12.595,28.674-28.674V135.124h-4.431v51.419h-3v-52.919h1.5v-1.5
				h8.931v105.535C63.348,255.42,49.436,269.333,31.674,269.333z"/>
		</g>
	</g>
	<g>
		<rect x="1.5" y="187.25" fill="#C32127" width="7.107" height="49.316"/>
		<path fill="#C32127" d="M10.107,238.066H0V185.75h10.107V238.066z M3,235.066h4.107V188.75H3V235.066z"/>
	</g>
	<g>
		<rect x="1.5" y="187.25" fill="#C32127" width="408.83" height="7.108"/>
		<path fill="#C32127" d="M411.83,195.858H0V185.75h411.83V195.858z M3,192.858h405.83v-4.108H3V192.858z"/>
	</g>
	<g>
		<g>
			<path fill="#C32127" d="M54.417,241.704v-88.332c-5.629,6.304-13.735,10.358-22.743,10.358c-16.89,0-30.174-13.288-30.174-30.176
				V80.637c0-16.89,13.285-30.172,30.174-30.172c9.008,0,17.114,3.826,22.743,10.355v-9.232h7.431v29.05v52.917v51.118
				 M54.417,133.554V80.637c0-12.609-10.134-22.745-22.743-22.745c-12.611,0-22.744,10.136-22.744,22.745v52.917
				c0,12.611,10.132,22.745,22.744,22.745C44.283,156.299,54.417,146.165,54.417,133.554z"/>
			<path fill="#C32127" d="M55.917,241.704h-3v-84.71c-5.889,5.271-13.452,8.237-21.243,8.237C13.913,165.23,0,151.316,0,133.554
				V80.637c0-17.76,13.913-31.672,31.674-31.672c8.063,0,15.477,2.871,21.243,8.156v-7.033h10.431v134.585h-3V53.087h-4.431v11.77
				l-2.636-3.058c-5.468-6.342-13.141-9.834-21.607-9.834C15.595,51.964,3,64.559,3,80.637v52.917
				c0,16.08,12.595,28.676,28.674,28.676c8.148,0,16.03-3.593,21.625-9.857l2.619-2.933V241.704z M31.674,157.799
				c-13.368,0-24.244-10.876-24.244-24.245V80.637c0-13.369,10.875-24.245,24.244-24.245c13.368,0,24.243,10.876,24.243,24.245
				v52.917C55.917,146.923,45.042,157.799,31.674,157.799z M31.674,59.392c-11.714,0-21.244,9.531-21.244,21.245v52.917
				c0,11.714,9.53,21.245,21.244,21.245c11.713,0,21.243-9.531,21.243-21.245V80.637C52.917,68.922,43.388,59.392,31.674,59.392z"/>
		</g>
	</g>
</g>
<text transform="matrix(1 0 0 1 668.4233 548.0776)" font-family="'iCielSimplifica'" font-size="8.9137">Font: iCiel Simplifica</text>
<g>
	<text transform="matrix(1 0 0 1 113.5825 545.4624)" font-family="'iCielSimplifica'" font-size="48.8964" letter-spacing="4">hand spa</text>
	
		<text transform="matrix(1 0 0 1 83.8862 484.8696)" fill="#C32127" stroke="#C32127" stroke-width="3" stroke-miterlimit="10" font-family="'iCielSimplifica'" font-size="135.426" letter-spacing="13">loss</text>
	<g>
		<path fill="#C32127" stroke="#C32127" stroke-width="3" stroke-miterlimit="10" d="M54.166,467.364h4.47v31.826v30.741
			c0,10.156-7.991,18.146-18.147,18.146c-10.157,0-18.146-7.99-18.146-18.146h4.274c0,7.447,6.288,13.678,13.872,13.678
			c7.583,0,13.678-6.23,13.678-13.678 M54.166,499.19 M54.166,499.19v-31.826"/>
	</g>
	
		<rect x="22.341" y="499.615" fill="#C32127" stroke="#C32127" stroke-width="3" stroke-miterlimit="10" width="4.274" height="29.658"/>
	
		<rect x="22.341" y="499.615" fill="#C32127" stroke="#C32127" stroke-width="3" stroke-miterlimit="10" width="245.872" height="4.275"/>
	<g>
		<path fill="#C32127" stroke="#C32127" stroke-width="3" stroke-miterlimit="10" d="M54.166,532.364V479.24
			c-3.385,3.792-8.26,6.229-13.678,6.229c-10.157,0-18.146-7.991-18.146-18.147v-31.825c0-10.157,7.989-18.145,18.146-18.145
			c5.418,0,10.293,2.301,13.678,6.228v-5.554h4.47v17.471v31.825v30.742 M54.166,467.322v-31.825
			c0-7.583-6.095-13.679-13.678-13.679c-7.584,0-13.678,6.096-13.678,13.679v31.825c0,7.584,6.094,13.679,13.678,13.679
			C48.071,481,54.166,474.906,54.166,467.322z"/>
	</g>
</g>
<text transform="matrix(1 0 0 1 15.4243 377.5825)" font-family="'iCielSimplifica'" font-size="9.9658">Original (not kerned)</text>
</svg>
