<?xml version="1.0" encoding="iso-8859-1"?>
<!-- Generator: Adobe Illustrator 19.0.0, SVG Export Plug-In . SVG Version: 6.00 Build 0)  -->
<svg version="1.1" id="Capa_1" xmlns="http://www.w3.org/2000/svg" xmlns:xlink="http://www.w3.org/1999/xlink" x="0px" y="0px"
	 viewBox="0 0 489.9 489.9" style="enable-background:new 0 0 489.9 489.9;" xml:space="preserve">
<g>
	<path d="M321.85,238.8l-8.2-219c-1-11.5-9.4-19.8-20.9-19.8h-95.9c-11.5,0-20.9,8.3-20.9,19.8l-8.1,219.3
		c-27.5,22.5-44.9,56.6-44.9,94.5c0,39.6,19.8,105.3,53.2,148c3.1,5.2,9.4,8.3,15.6,8.3h104.3c6.3,0,12.5-3.1,17.7-8.3
		c33.4-42.7,53.2-108.4,53.2-148C366.85,295.2,349.35,261.1,321.85,238.8z M215.65,40.7h56.3l6.3,175.6c-10.6-3-21.8-4.6-33.4-4.6
		c-12.4,0-24.3,1.9-35.6,5.3L215.65,40.7z M285.55,449.3h-83.4c-24-34.4-39.6-85.5-40.7-114.7c0-44.8,36.5-81.3,81.3-81.3
		s81.3,36.5,81.3,81.3C324.05,363.9,308.45,414.9,285.55,449.3z"/>
</g>
<g>
</g>
<g>
</g>
<g>
</g>
<g>
</g>
<g>
</g>
<g>
</g>
<g>
</g>
<g>
</g>
<g>
</g>
<g>
</g>
<g>
</g>
<g>
</g>
<g>
</g>
<g>
</g>
<g>
</g>
</svg>
