<?xml version="1.0" encoding="iso-8859-1"?>
<!-- Generator: Adobe Illustrator 19.0.0, SVG Export Plug-In . SVG Version: 6.00 Build 0)  -->
<svg version="1.1" id="Capa_1" xmlns="http://www.w3.org/2000/svg" xmlns:xlink="http://www.w3.org/1999/xlink" x="0px" y="0px"
	 viewBox="0 0 490 490" style="enable-background:new 0 0 490 490;" xml:space="preserve">
<g>
	<g>
		<path d="M302.25,490h-114.4c-11.2,0-20.4-9.2-20.4-20.4v-147h-147c-11.2,0-20.4-9.2-20.4-20.4V187.8c0-11.2,9.2-20.4,20.4-20.4
			h147v-147c0-11.2,9.2-20.4,20.4-20.4h114.3c11.2,0,20.4,9.2,20.4,20.4v147h147c11.2,0,20.4,9.2,20.4,20.4v114.3
			c0,11.2-9.2,20.4-20.4,20.4h-147v147C322.65,480.8,313.45,490,302.25,490z M208.35,449.2h73.5v-147c0-11.2,9.2-20.4,20.4-20.4h147
			v-73.5h-147c-11.2,0-20.4-9.2-20.4-20.4v-147h-73.5v147c0,11.2-9.2,20.4-20.4,20.4h-147v73.5h147c11.2,0,20.4,9.2,20.4,20.4V449.2
			L208.35,449.2z"/>
	</g>
</g>
<g>
</g>
<g>
</g>
<g>
</g>
<g>
</g>
<g>
</g>
<g>
</g>
<g>
</g>
<g>
</g>
<g>
</g>
<g>
</g>
<g>
</g>
<g>
</g>
<g>
</g>
<g>
</g>
<g>
</g>
</svg>
